<?xml version="1.0" encoding="UTF-8"?>
<svg width="16px" height="14px" viewBox="0 0 16 14" version="1.1" xmlns="http://www.w3.org/2000/svg" xmlns:xlink="http://www.w3.org/1999/xlink">
    <title>02857961-0195-4E4A-9898-3B72F9FF7063@1x</title>
    <g id="Symbols" stroke="none" stroke-width="1" fill="none" fill-rule="evenodd">
        <g id="Icon/Progress/Arrow" transform="translate(-8.000000, -9.000000)" fill="#CEB063" fill-rule="nonzero">
            <path d="M15.7071068,9.29289322 C16.0976311,9.68341751 16.0976311,10.3165825 15.7071068,10.7071068 L11.416,14.999 L23,15 C23.5522847,15 24,15.4477153 24,16 C24,16.5522847 23.5522847,17 23,17 L11.414,16.999 L15.7071068,21.2928932 C16.0976311,21.6834175 16.0976311,22.3165825 15.7071068,22.7071068 C15.3165825,23.0976311 14.6834175,23.0976311 14.2928932,22.7071068 L8.29289322,16.7071068 L8.21968877,16.625449 C8.2173721,16.6225624 8.21507113,16.6196628 8.21278596,16.6167501 L8.29289322,16.7071068 C8.25749917,16.6717127 8.22531295,16.6343256 8.19633458,16.5953066 C8.17849009,16.5711307 8.1617187,16.546275 8.14606743,16.5206602 C8.13860692,16.5086131 8.13149883,16.4963944 8.12467117,16.4840621 C8.11379392,16.4642939 8.10337664,16.4438914 8.09365378,16.4230991 C8.08567905,16.4060985 8.07819642,16.3887956 8.07122549,16.371336 C8.06331574,16.3515792 8.05612249,16.3317977 8.04954668,16.3117364 C8.04472872,16.2968513 8.04009773,16.2814633 8.03584514,16.265993 C8.02983363,16.2444365 8.0246398,16.2227461 8.02016515,16.2007941 C8.01670217,16.1833753 8.01362808,16.165949 8.0110178,16.1484669 C8.00811223,16.1294958 8.00576612,16.109847 8.00399798,16.090032 C8.00189498,16.0659949 8.00063489,16.042681 8.00018615,16.0193545 C8.00006675,16.0134712 8,16.0067434 8,16 L8.00018615,15.9806455 C8.00063489,15.957319 8.00189498,15.9340051 8.00396641,15.9107499 L8,16 C8,15.9493797 8.00376119,15.8996379 8.01101934,15.8510388 C8.01362808,15.834051 8.01670217,15.8166247 8.02024007,15.7992742 C8.0246398,15.7772539 8.02983363,15.7555635 8.03572097,15.7341604 C8.04009773,15.7185367 8.04472872,15.7031487 8.04973809,15.6878575 C8.05612249,15.6682023 8.06331574,15.6484208 8.07110396,15.6289415 C8.07819642,15.6112044 8.08567905,15.5939015 8.09367336,15.5767785 C8.10337664,15.5561086 8.11379392,15.5357061 8.12487577,15.515723 C8.13149883,15.5036056 8.13860692,15.4913869 8.14599545,15.4792912 C8.1617187,15.453725 8.17849009,15.4288693 8.19631351,15.4048407 C8.20175344,15.397397 8.20728448,15.3901576 8.21292769,15.3829777 C8.23766884,15.3515341 8.26442691,15.3213595 8.29289322,15.2928932 L14.2928932,9.29289322 C14.6834175,8.90236893 15.3165825,8.90236893 15.7071068,9.29289322 Z" id="Combined-Shape" transform="translate(16.000000, 16.000000) scale(-1, 1) translate(-16.000000, -16.000000) "></path>
        </g>
    </g>
</svg>